# xmcd CD database file
#
# Track frame offsets:
#	151
#	19654
#	47245
#	71037
#	92597
#	119309
#	148179
#	166040
#	183739
#	208668
#	231526
#	260950
#	287429
#	302809
#
# Disc length: 4462 seconds
#
# Revision: 2
# Processed by: cddbd v1.4b41PL1 Copyright (c) Steve Scherf et al.
# Submitted via: Feurio! 1.50.2ß - http://www.feurio.com
#
DISCID=d5116c0e
DTITLE=Various Artists (SIRD) - Steppin In The Right Direction
DYEAR=1900
DGENRE=
TTITLE0=Mel Devonne and The Stepmasters - Chicago Steppers Slide (Instr.)
TTITLE1=George Michael and Mary J. Blige - As (Remix)
TTITLE2=DJ Inc. - Bubby Duck Song
TTITLE3=3 S Production - Smooth Stepper
TTITLE4=Patti Austin - In And Out Of Love (Remix)
TTITLE5=Raphael Saddiq and Q Tip - Get Involved (Remix)
TTITLE6=Roger Smith  - Off The Hook
TTITLE7=Gota - In The City Life
TTITLE8=Keni Burke - Indigenous Love
TTITLE9=Chantay Savage - My Oh My
TTITLE10=Esther Phillips  - And I Love Him (Live)
TTITLE11=Curtis Mayfield - Baby It's You
TTITLE12=Marvin Gaye and Kim Weston - It's Got To be A Miracle
TTITLE13=Donald Byrd and 125th St N.Y.C. - Feel Like Loving You Today
EXTD=
EXTT0=
EXTT1=
EXTT2=
EXTT3=
EXTT4=
EXTT5=
EXTT6=
EXTT7=
EXTT8=
EXTT9=
EXTT10=
EXTT11=
EXTT12=
EXTT13=
PLAYORDER=
